<svg width="22" height="37" viewBox="0 0 22 37" fill="none" xmlns="http://www.w3.org/2000/svg">
<path d="M10.9994 2.93302C14.1251 6.9011 15.7937 11.7944 15.7332 16.8155V18.0141L16.7644 18.6416C18.0969 19.4482 19.0906 20.6993 19.5645 22.1669C19.1484 21.8605 18.7131 21.5803 18.2612 21.3278L15.5112 19.7838L15.017 22.9001C14.9742 23.1755 14.9168 23.4485 14.8451 23.718H7.13941C7.02483 23.3655 6.93173 23.0129 6.84579 22.6463L6.22275 19.8261L3.68759 21.2362C3.26405 21.473 2.85514 21.7344 2.46298 22.0188C2.94615 20.5682 3.91914 19.3242 5.22014 18.4935L6.20126 17.866V16.7521C6.21896 11.7513 7.90758 6.89523 11.0066 2.93302H10.9994ZM11.0066 0C10.8459 0.000390307 10.6907 0.0579856 10.5697 0.162162L10.5053 0.218566C6.37569 4.76564 4.08257 10.6454 4.05998 16.745C2.30757 17.8643 1.01041 19.5543 0.395169 21.5197C-0.220073 23.485 -0.114267 25.6007 0.6941 27.4971C1.54567 25.6455 2.96921 24.1058 4.76181 23.0975C4.94159 23.8642 5.18101 24.6161 5.47795 25.3467C5.51561 25.4871 5.59909 25.6114 5.71554 25.7006C5.83199 25.7898 5.97497 25.8388 6.12248 25.8402H16.0626C16.2631 25.8402 16.4636 25.6498 16.5639 25.3537C16.8537 24.6592 17.0557 23.9322 17.1655 23.1892C18.9615 24.1932 20.3862 25.7342 21.2332 27.5887C22.0903 25.7017 22.223 23.5727 21.6067 21.5967C20.9903 19.6206 19.6667 17.9319 17.8816 16.8437C17.9524 10.7082 15.6714 4.77179 11.4936 0.218566C11.4314 0.150085 11.3552 0.0952397 11.2701 0.0575871C11.185 0.0199344 11.0928 0.000314749 10.9994 0L11.0066 0Z" fill="#4EA8DE"/>
<path d="M10.9995 16.1598C10.4494 16.1598 9.91166 15.9995 9.45402 15.699C8.99637 15.3986 8.63931 14.9715 8.42784 14.4716C8.21637 13.9716 8.15996 13.4213 8.26572 12.8898C8.37149 12.3584 8.63468 11.8697 9.02214 11.4853C9.40959 11.1009 9.90397 10.838 10.4429 10.7298C10.9819 10.6216 11.5414 10.6729 12.0508 10.8773C12.5602 11.0816 12.9967 11.4298 13.3054 11.8781C13.6141 12.3263 13.781 12.8545 13.7853 13.396C13.7938 13.7469 13.7321 14.0961 13.6035 14.4235C13.475 14.751 13.2822 15.0503 13.0361 15.3043C12.79 15.5583 12.4955 15.7622 12.1694 15.9041C11.8433 16.0461 11.492 16.1234 11.1355 16.1316C11.0905 16.1387 11.0445 16.1387 10.9995 16.1316V16.1598Z" fill="#4EA8DE"/>
<path d="M14.8738 27.5958C14.6946 27.5901 14.5161 27.6198 14.3487 27.683C14.1813 27.7462 14.0284 27.8416 13.899 27.9638C13.7696 28.086 13.6663 28.2323 13.5951 28.3943C13.5239 28.5563 13.4863 28.7307 13.4845 28.9072V33.067C13.4845 33.4297 13.6309 33.7776 13.8914 34.0342C14.152 34.2907 14.5053 34.4348 14.8738 34.4348C15.2423 34.4348 15.5957 34.2907 15.8562 34.0342C16.1168 33.7776 16.2631 33.4297 16.2631 33.067V28.9636C16.2689 28.7877 16.239 28.6126 16.1752 28.4482C16.1115 28.2839 16.0151 28.1337 15.8918 28.0064C15.7685 27.879 15.6207 27.7772 15.457 27.7067C15.2933 27.6362 15.1169 27.5985 14.9383 27.5958H14.8738Z" fill="#5E60CE"/>
<path d="M7.13944 27.5958C6.95721 27.5863 6.7749 27.613 6.60336 27.6743C6.43182 27.7356 6.27456 27.8302 6.14093 27.9526C6.0073 28.0749 5.90003 28.2225 5.82551 28.3865C5.75099 28.5505 5.71074 28.7275 5.70715 28.9072V33.067C5.70715 33.4297 5.85353 33.7777 6.11408 34.0342C6.37462 34.2907 6.728 34.4348 7.09648 34.4348C7.46495 34.4348 7.81833 34.2907 8.07888 34.0342C8.33942 33.7777 8.4858 33.4297 8.4858 33.067V28.9636C8.49152 28.7877 8.46164 28.6126 8.39789 28.4482C8.33414 28.2839 8.2378 28.1337 8.11448 28.0064C7.99117 27.879 7.84335 27.7772 7.67963 27.7067C7.51592 27.6362 7.33959 27.5985 7.16093 27.5958H7.13944Z" fill="#5E60CE"/>
<path d="M10.8992 27.5958C10.7205 27.592 10.5428 27.623 10.3763 27.6869C10.2097 27.7507 10.0576 27.8463 9.92859 27.9681C9.79957 28.0899 9.69619 28.2355 9.62435 28.3966C9.5525 28.5577 9.51361 28.7312 9.50989 28.9072V34.6392C9.50989 35.002 9.65626 35.3499 9.91681 35.6064C10.1774 35.8629 10.5307 36.007 10.8992 36.007C11.2677 36.007 11.6211 35.8629 11.8816 35.6064C12.1422 35.3499 12.2885 35.002 12.2885 34.6392V28.9988C12.2943 28.823 12.2644 28.6478 12.2006 28.4835C12.1369 28.3191 12.0405 28.1689 11.9172 28.0416C11.7939 27.9143 11.6461 27.8124 11.4824 27.7419C11.3187 27.6714 11.1423 27.6337 10.9637 27.631L10.8992 27.5958Z" fill="#5E60CE"/>
</svg>
